<?xml version="1.0" encoding="UTF-8" standalone="no"?>
<svg
   height="630.84479"
   id="Layer_1"
   version="1.1"
   viewBox="0 0 630.84479 630.84479"
   width="630.84479"
   xml:space="preserve"
   sodipodi:docname="documenticon.svg"
   inkscape:version="1.3.2 (091e20e, 2023-11-25, custom)"
   xmlns:inkscape="http://www.inkscape.org/namespaces/inkscape"
   xmlns:sodipodi="http://sodipodi.sourceforge.net/DTD/sodipodi-0.dtd"
   xmlns="http://www.w3.org/2000/svg"
   xmlns:svg="http://www.w3.org/2000/svg"><defs
     id="defs1" /><sodipodi:namedview
     id="namedview1"
     pagecolor="#505050"
     bordercolor="#eeeeee"
     borderopacity="1"
     inkscape:showpageshadow="0"
     inkscape:pageopacity="0"
     inkscape:pagecheckerboard="0"
     inkscape:deskcolor="#505050"
     inkscape:zoom="0.57383373"
     inkscape:cx="505.37288"
     inkscape:cy="241.35911"
     inkscape:window-width="3440"
     inkscape:window-height="1387"
     inkscape:window-x="-8"
     inkscape:window-y="1072"
     inkscape:window-maximized="1"
     inkscape:current-layer="Layer_1" /><circle
     style="fill:#ffffff;stroke-width:26.6667"
     id="path2"
     cx="315.42239"
     cy="315.42239"
     r="315.42239" /><g
     id="g1"
     transform="matrix(1.0635347,0,0,1.0635347,48.617657,39.475001)"><path
       d="m 398.6,169.2 c -0.9,-2.2 -2,-4.3 -3.5,-6.1 L 311.3,71.4 c -1.9,-2.1 -4.2,-3.6 -6.7,-4.9 -2.9,-1.5 -6.1,-2.1 -9.5,-2.1 H 135.2 c -12.4,0 -22.7,10.6 -22.7,23.9 v 335.2 c 0,13.4 10.3,24.9 22.7,24.9 h 243.1 c 12.4,0 22.2,-11.5 22.2,-24.9 V 179.4 c 0,-3.6 -0.5,-7.1 -1.9,-10.2 z m -238.1,9.4 c 0,-1.5 1.8,-2.1 3.4,-2.1 h 70.8 c 1.6,0 2.8,0.6 2.8,2.1 v 10.8 c 0,1.4 -1.1,3.1 -2.8,3.1 h -70.8 c -1.6,0 -3.4,-1.7 -3.4,-3.1 z m 0,128 c 0,-1.5 1.8,-2.1 3.4,-2.1 h 122.2 c 1.6,0 2.4,0.6 2.4,2.1 v 10.8 c 0,1.4 -0.7,3.1 -2.4,3.1 H 163.9 c -1.6,0 -3.4,-1.7 -3.4,-3.1 z m 160,74.8 c 0,1.4 -0.7,3.1 -2.4,3.1 H 163.9 c -1.6,0 -3.4,-1.7 -3.4,-3.1 v -10.8 c 0,-1.5 1.8,-2.1 3.4,-2.1 h 154.2 c 1.6,0 2.4,0.6 2.4,2.1 z m 32,-128 c 0,1.4 -0.7,3.1 -2.4,3.1 H 163.9 c -1.6,0 -3.4,-1.7 -3.4,-3.1 v -10.8 c 0,-1.5 1.8,-2.1 3.4,-2.1 h 186.2 c 1.6,0 2.4,0.6 2.4,2.1 z m -46.9,-75.9 c -5.6,0 -11.1,-5.2 -11.1,-11.3 v -66 l 71.2,77.3 z"
       id="path1" /></g></svg>
