<?xml version="1.0" encoding="UTF-8" standalone="no"?>
<svg
   enable-background="new 0 0 56.693 56.693"
   height="49.25"
   id="Layer_1"
   version="1.1"
   viewBox="0 0 49.248 49.249999"
   width="49.248001"
   xml:space="preserve"
   sodipodi:docname="linkedinicon.svg"
   inkscape:version="1.3.2 (091e20e, 2023-11-25, custom)"
   xmlns:inkscape="http://www.inkscape.org/namespaces/inkscape"
   xmlns:sodipodi="http://sodipodi.sourceforge.net/DTD/sodipodi-0.dtd"
   xmlns="http://www.w3.org/2000/svg"
   xmlns:svg="http://www.w3.org/2000/svg"><defs
     id="defs3" /><sodipodi:namedview
     id="namedview3"
     pagecolor="#505050"
     bordercolor="#eeeeee"
     borderopacity="1"
     inkscape:showpageshadow="0"
     inkscape:pageopacity="0"
     inkscape:pagecheckerboard="0"
     inkscape:deskcolor="#505050"
     inkscape:zoom="11.313709"
     inkscape:cx="-13.700194"
     inkscape:cy="21.345786"
     inkscape:window-width="3440"
     inkscape:window-height="1387"
     inkscape:window-x="-8"
     inkscape:window-y="1072"
     inkscape:window-maximized="1"
     inkscape:current-layer="Layer_1" /><g
     id="g3"
     transform="translate(-3.722,-5.155)"><path
       d="m 28.347,5.155 c -13.6,0 -24.625,11.025 -24.625,24.625 0,13.602 11.025,24.625 24.625,24.625 C 41.945,54.405 52.97,43.382 52.97,29.78 52.97,16.181 41.944,5.155 28.347,5.155 Z m 13.715,36.586 c 0,1.096 -0.91,1.982 -2.031,1.982 H 16.613 c -1.123,0 -2.031,-0.887 -2.031,-1.982 V 18.052 c 0,-1.094 0.908,-1.982 2.031,-1.982 H 40.03 c 1.121,0 2.031,0.889 2.031,1.982 v 23.689 z"
       id="path1"
       style="fill:#ffffff;fill-opacity:1" /><path
       d="m 33.099,26.441 c -2.201,0 -3.188,1.209 -3.74,2.061 v 0.041 h -0.027 c 0.01,-0.012 0.02,-0.027 0.027,-0.041 v -1.768 h -4.15 c 0.055,1.17 0,12.484 0,12.484 h 4.15 v -6.973 c 0,-0.375 0.027,-0.744 0.137,-1.012 0.301,-0.744 0.984,-1.52 2.129,-1.52 1.504,0 2.104,1.146 2.104,2.824 v 6.68 h 4.15 V 32.06 c -10e-4,-3.836 -2.05,-5.619 -4.78,-5.619 z"
       id="path2"
       style="fill:#ffffff;fill-opacity:1" /><path
       d="m 20.864,20.712 c -1.419,0 -2.349,0.934 -2.349,2.159 0,1.197 0.9,2.158 2.294,2.158 h 0.027 c 1.447,0 2.348,-0.961 2.348,-2.158 -0.027,-1.225 -0.9,-2.159 -2.32,-2.159 z"
       id="path3"
       style="fill:#ffffff;fill-opacity:1" /><rect
       height="12.484"
       width="4.151"
       x="18.761999"
       y="26.733999"
       id="rect3"
       style="fill:#ffffff;fill-opacity:1" /></g><path
     style="fill:#000000;fill-opacity:1;stroke-width:0.833333"
     d="m 12.425651,38.500568 c -0.561975,-0.122049 -1.114878,-0.564254 -1.364044,-1.090947 -0.18784,-0.397061 -0.174275,0.590972 -0.17377,-12.657124 5.12e-4,-13.446862 -0.0182,-12.307565 0.209412,-12.748025 0.170593,-0.330116 0.538705,-0.685274 0.883876,-0.852771 0.146094,-0.07089 0.342969,-0.147809 0.4375,-0.170924 0.142453,-0.03483 2.234075,-0.04203 12.21875,-0.04203 H 36.68425 l 0.269305,0.09642 c 0.673895,0.241265 1.13947,0.741432 1.309695,1.407006 0.06081,0.237784 0.06162,0.399355 0.06108,12.29064 -6.01e-4,13.344021 0.01723,12.258144 -0.208861,12.71753 -0.08704,0.176851 -0.182066,0.303417 -0.368029,0.49018 -0.288344,0.289586 -0.563943,0.449387 -0.941613,0.545979 -0.237837,0.06083 -0.395701,0.06159 -12.212515,0.05914 -9.982157,-0.0021 -12.004151,-0.0096 -12.167663,-0.04507 z m 6.774224,-10.671193 v -6.25 h -2.09375 -2.09375 v 6.25 6.25 h 2.09375 2.09375 z m 6.438457,2.773437 c 5.26e-4,-1.912109 0.01332,-3.646579 0.02843,-3.854378 0.04698,-0.646071 0.248165,-1.0793 0.717523,-1.545124 0.433575,-0.430312 0.912507,-0.623935 1.54332,-0.623935 0.564895,0 0.999292,0.165685 1.351877,0.515625 0.243961,0.242131 0.397724,0.504775 0.526538,0.899384 0.173325,0.530968 0.175103,0.576523 0.175103,4.487439 v 3.597552 h 2.095067 2.095068 l -0.01057,-4.039063 c -0.01032,-3.941603 -0.01217,-4.048865 -0.07689,-4.445312 -0.124678,-0.763772 -0.305155,-1.35958 -0.57659,-1.903489 -0.663096,-1.328731 -1.779549,-2.123696 -3.322962,-2.366099 -0.367308,-0.05769 -1.311432,-0.0506 -1.65625,0.01244 -1.14654,0.209604 -1.958208,0.715161 -2.661606,1.657813 l -0.229019,0.306917 V 22.44098 21.579375 h -2.076944 -2.076944 l -0.0011,6.25 -0.0011,6.25 H 23.5593 25.637375 Z M 17.836093,19.798227 c 0.7994,-0.212375 1.367801,-0.766021 1.572163,-1.531352 0.07221,-0.270422 0.07117,-0.816557 -0.0021,-1.09375 -0.229112,-0.866963 -0.898919,-1.450265 -1.833255,-1.596491 -0.318871,-0.0499 -0.889329,-0.01837 -1.185539,0.06554 -0.727137,0.205975 -1.226927,0.654584 -1.478103,1.326738 -0.07994,0.213918 -0.09599,0.30739 -0.108428,0.631415 -0.02678,0.697725 0.148692,1.172423 0.599403,1.621523 0.353809,0.352544 0.688473,0.525619 1.207534,0.624487 0.318691,0.0607 0.905199,0.03773 1.228312,-0.04811 z"
     id="path8" /></svg>
