<?xml version="1.0" encoding="UTF-8" standalone="no"?>
<svg
   viewBox="0 0 56 56"
   version="1.1"
   id="svg1"
   sodipodi:docname="mailicon.svg"
   inkscape:version="1.3.2 (091e20e, 2023-11-25, custom)"
   width="56"
   height="56"
   xmlns:inkscape="http://www.inkscape.org/namespaces/inkscape"
   xmlns:sodipodi="http://sodipodi.sourceforge.net/DTD/sodipodi-0.dtd"
   xmlns="http://www.w3.org/2000/svg"
   xmlns:svg="http://www.w3.org/2000/svg">
  <sodipodi:namedview
     id="namedview1"
     pagecolor="#505050"
     bordercolor="#eeeeee"
     borderopacity="1"
     inkscape:showpageshadow="0"
     inkscape:pageopacity="0"
     inkscape:pagecheckerboard="0"
     inkscape:deskcolor="#505050"
     inkscape:zoom="9.3046875"
     inkscape:cx="-12.466835"
     inkscape:cy="24.557515"
     inkscape:window-width="3440"
     inkscape:window-height="1387"
     inkscape:window-x="-8"
     inkscape:window-y="1072"
     inkscape:window-maximized="1"
     inkscape:current-layer="svg1" />
  <defs
     id="defs1">
    <style
       id="style1">.cls-1{fill:#231f20;}</style>
  </defs>
  <title
     id="title1" />
  <circle
     style="fill:#ffffff;stroke-width:26.6667"
     id="path4"
     cx="28"
     cy="28"
     r="28" />
  <path
     style="fill:#000000;stroke-width:1.91263"
     d="m 27.483293,26.735471 c -0.311607,-0.125961 -1.809166,-0.730692 -3.32791,-1.343846 -1.518745,-0.613154 -3.697344,-1.493116 -4.841334,-1.955469 -3.63238,-1.46806 -6.985125,-2.820179 -8.391643,-3.384241 -0.74951,-0.300579 -1.3738003,-0.554871 -1.3873119,-0.565092 -0.062342,-0.04716 0.2449352,-0.908068 0.4987389,-1.397329 0.751708,-1.449078 2.138019,-2.502334 3.730703,-2.834418 0.421467,-0.08788 2.554284,-0.100078 14.533349,-0.08313 l 14.039392,0.01986 0.441507,0.151878 c 1.450656,0.499023 2.651266,1.508753 3.271249,2.751168 0.29488,0.590925 0.59995,1.48494 0.530436,1.554455 -0.01766,0.01765 -13.523457,5.350547 -17.806155,7.030926 l -0.724466,0.284256 z"
     id="path2" />
  <path
     style="fill:#000000;stroke-width:1.91263"
     d="m 13.979315,41.682742 c -1.79419,-0.298008 -3.455071,-1.623076 -4.1615574,-3.320133 -0.436478,-1.048467 -0.4374058,-1.067301 -0.4374058,-8.880794 0,-5.649982 0.018299,-7.091752 0.089655,-7.063877 0.04931,0.01926 4.1402362,1.673054 9.0909462,3.675095 7.080624,2.863364 9.085467,3.647017 9.395775,3.672619 0.371707,0.03067 0.537312,-0.02392 2.868936,-0.945675 1.360952,-0.538023 4.185063,-1.651812 6.275803,-2.475089 2.090737,-0.823275 4.656645,-1.834468 5.702014,-2.247096 3.539724,-1.397197 3.764067,-1.484359 3.82054,-1.484359 0.03102,0 0.04746,3.316313 0.03653,7.369585 l -0.01987,7.369583 -0.195445,0.573788 c -0.66823,1.961785 -2.254737,3.348107 -4.275648,3.736147 -0.442245,0.08492 -2.704665,0.09972 -14.16538,0.09267 -7.627541,-0.0047 -13.80913,-0.03663 -14.024895,-0.07246 z"
     id="path3" />
</svg>
