<?xml version="1.0" encoding="UTF-8" standalone="no"?>
<svg
   id="Layer_1"
   version="1.1"
   viewBox="0 0 56 56"
   xml:space="preserve"
   sodipodi:docname="phoneicon.svg"
   inkscape:version="1.3.2 (091e20e, 2023-11-25, custom)"
   width="56"
   height="56"
   xmlns:inkscape="http://www.inkscape.org/namespaces/inkscape"
   xmlns:sodipodi="http://sodipodi.sourceforge.net/DTD/sodipodi-0.dtd"
   xmlns="http://www.w3.org/2000/svg"
   xmlns:svg="http://www.w3.org/2000/svg"><defs
     id="defs1" /><sodipodi:namedview
     id="namedview1"
     pagecolor="#505050"
     bordercolor="#eeeeee"
     borderopacity="1"
     inkscape:showpageshadow="0"
     inkscape:pageopacity="0"
     inkscape:pagecheckerboard="0"
     inkscape:deskcolor="#505050"
     inkscape:zoom="4.9625"
     inkscape:cx="-3.2241814"
     inkscape:cy="48.261965"
     inkscape:window-width="3440"
     inkscape:window-height="1387"
     inkscape:window-x="-8"
     inkscape:window-y="1072"
     inkscape:window-maximized="1"
     inkscape:current-layer="Layer_1" /><circle
     style="fill:#ffffff;stroke-width:26.6667"
     id="path4"
     cx="28"
     cy="28"
     r="28" /><path
     d="m 36.139202,32.196492 c -0.571405,-0.334962 -1.273697,-0.327924 -1.842286,0.0099 l -2.879542,1.715607 c -0.64459,0.38422 -1.449623,0.339183 -2.040731,-0.122444 -1.021773,-0.79803 -2.667025,-2.14069 -4.098351,-3.572016 -1.431326,-1.431327 -2.773986,-3.076578 -3.571982,-4.098351 -0.461627,-0.591109 -0.506664,-1.396141 -0.122444,-2.040732 l 1.715621,-2.87954 c 0.339184,-0.568591 0.341998,-1.276513 0.007,-1.847918 l -4.225011,-7.217149 c -0.409552,-0.698071 -1.22303,-1.041477 -2.009767,-0.848663 -0.764218,0.185777 -1.756436,0.63896 -2.796505,1.680436 -3.256725,3.256725 -4.98642,8.749809 7.260779,20.997009 12.2472,12.2472 17.738877,10.518912 20.997008,7.26078 1.042885,-1.042884 1.49466,-2.036509 1.681845,-2.802136 0.189999,-0.785328 -0.147778,-1.593177 -0.844441,-2.001322 -1.739547,-1.017551 -5.491677,-3.214504 -7.231224,-4.233461 z"
     id="path1"
     style="stroke-width:1.4074" /></svg>
